<svg xmlns="http://www.w3.org/2000/svg" data-name="Component 1 – 1" width="832" height="832" viewBox="0 0 832 832" zoom="1"><style>.a{fill:#fff;}.b{fill:#3b3b3b;}</style><g data-name="Path 1" class="a"><path d="M416 20C197.6 20 20 197.6 20 416 20 634.4 197.6 812 416 812 634.4 812 812 634.4 812 416 812 197.6 634.4 20 416 20M416 0C645.8 0 832 186.2 832 416 832 645.8 645.8 832 416 832 186.2 832 0 645.8 0 416 0 186.2 186.2 0 416 0Z" class="b"/></g><g data-name="Path 2" class="a"><path d="M416 40.7L93.7 600.4 738.3 600.4 416 40.7M416 0.6L772.8 620.4 59.2 620.4 416 0.6Z" class="b"/></g></svg>